<svg width="907" height="514" viewBox="0 0 907 514" fill="none" xmlns="http://www.w3.org/2000/svg">
<rect x="278" y="14" width="629" height="412" rx="206" fill="#D2E1FA"/>
<path d="M341.284 406.458C314.39 386.039 292.137 360.143 275.999 330.481C259.862 300.82 250.206 268.069 247.672 234.397C245.138 200.725 249.783 166.899 261.3 135.156C272.817 103.413 290.943 74.4778 314.479 50.2643" stroke="#446193" stroke-width="2" stroke-linecap="round"/>
<path d="M350.808 297.428C352.581 299.106 356 299.269 356 300.5C356 301.731 352.532 301.824 350.808 303.548C349.085 305.272 348.612 309.012 347.5 309C346.388 308.988 346.073 305.724 344.348 303.888C342.508 301.928 339 301.76 339 300.5C339 299.24 342.893 298.962 344.688 296.748C346.04 295.082 346.385 292 347.5 292C348.615 292 348.909 295.63 350.808 297.428Z" fill="#446193"/>
<path d="M726.892 64.3859C728.978 66.3598 733 66.5522 733 68C733 69.4478 728.92 69.5582 726.892 71.5859C724.864 73.6137 724.308 78.0141 723 78C721.692 77.9859 721.321 74.1461 719.292 71.9859C717.127 69.6806 713 69.4821 713 68C713 66.5179 717.58 66.1909 719.692 63.5859C721.282 61.6259 721.688 58 723 58C724.312 58 724.657 62.2711 726.892 64.3859Z" fill="#446193"/>
<path d="M689.281 309.025C691.576 311.196 696 311.407 696 313C696 314.593 691.512 314.714 689.281 316.945C687.051 319.175 686.439 324.015 685 324C683.561 323.985 683.154 319.761 680.921 317.385C678.539 314.849 674 314.63 674 313C674 311.37 679.037 311.01 681.361 308.145C683.11 305.988 683.557 302 685 302C686.443 302 686.823 306.698 689.281 309.025Z" fill="#446193"/>
<circle cx="362" cy="350" r="6" fill="#446193"/>
<circle cx="787" cy="122" r="6" fill="#446193"/>
<circle cx="329.5" cy="57.5" r="4.5" fill="#446193"/>
<circle cx="532" cy="397" r="4" fill="#446193"/>
<circle cx="371" cy="8" r="8" fill="#446193"/>
<g clip-path="url(#clip0)">
<path d="M78.2412 299.605L60.0653 308.516C59.7258 308.682 59.4225 308.913 59.1725 309.197C58.9226 309.48 58.731 309.81 58.6087 310.168C58.4864 310.525 58.4358 310.904 58.4597 311.281C58.4837 311.658 58.5818 312.027 58.7483 312.366L80.9425 357.649L88.3417 372.741C88.5079 373.08 88.7393 373.384 89.0228 373.634C89.3063 373.884 89.6363 374.075 89.9939 374.197C90.3515 374.32 90.7297 374.37 91.1068 374.346C91.484 374.322 91.8527 374.224 92.192 374.058L104.01 368.265L106.998 374.359L103.271 376.186C102.932 376.352 102.629 376.584 102.379 376.867C102.129 377.151 101.937 377.481 101.815 377.838C101.692 378.195 101.641 378.574 101.665 378.951C101.689 379.328 101.787 379.697 101.953 380.036C102.119 380.375 102.35 380.679 102.634 380.928C102.917 381.178 103.247 381.37 103.605 381.492C103.962 381.615 104.34 381.666 104.717 381.642C105.094 381.618 105.463 381.521 105.803 381.354L112.093 378.27L112.113 378.263L112.13 378.252L142.368 363.426L152.642 384.378L130.053 395.453C130.018 395.469 129.983 395.474 129.949 395.492C129.915 395.51 129.888 395.532 129.855 395.55L99.04 410.656L88.7691 389.704L94.2343 387.026C94.9197 386.69 95.4436 386.096 95.6908 385.374C95.938 384.651 95.8881 383.861 95.5523 383.175C95.2164 382.49 94.622 381.966 93.8999 381.719C93.1777 381.472 92.387 381.521 91.7015 381.857L83.9054 385.681L72.0655 388.799C71.6537 388.907 71.2711 389.106 70.9454 389.38C70.6197 389.654 70.3589 389.998 70.1819 390.385C70.0049 390.772 69.9161 391.194 69.9218 391.62C69.9275 392.046 70.0277 392.465 70.2151 392.847L85.1953 423.4C85.3828 423.782 85.6529 424.118 85.9859 424.383C86.319 424.649 86.7069 424.837 87.1214 424.934C87.536 425.031 87.967 425.035 88.3833 424.946C88.7996 424.856 89.1909 424.675 89.5288 424.416L99.2464 416.967L122.336 405.644L126.082 413.285L114.265 419.079C113.926 419.245 113.623 419.476 113.373 419.76C113.123 420.043 112.931 420.373 112.809 420.731C112.687 421.088 112.636 421.466 112.66 421.844C112.684 422.221 112.782 422.589 112.948 422.929L127.747 453.113L135.145 468.204L142.548 483.302C142.714 483.642 142.945 483.945 143.229 484.195C143.512 484.445 143.842 484.636 144.2 484.759C144.557 484.881 144.936 484.932 145.313 484.908C145.69 484.884 146.059 484.786 146.398 484.619L182.759 466.791C182.93 466.707 183.093 466.606 183.244 466.49C183.34 466.411 183.432 466.326 183.517 466.236C183.561 466.192 183.613 466.154 183.654 466.109C183.74 466.006 183.818 465.897 183.889 465.783C183.918 465.739 183.954 465.699 183.98 465.654C184.168 465.329 184.291 464.97 184.341 464.598C184.349 464.545 184.344 464.493 184.348 464.44C184.362 464.307 184.367 464.172 184.362 464.038C184.358 463.976 184.34 463.914 184.331 463.854C184.32 463.73 184.299 463.607 184.271 463.486C184.223 463.301 184.156 463.122 184.072 462.95L176.676 447.85L169.277 432.76L161.88 417.672L154.481 402.58C154.397 402.408 154.296 402.246 154.18 402.094C154.097 401.992 154.006 401.895 153.91 401.806C153.87 401.766 153.837 401.72 153.795 401.685C153.687 401.594 153.572 401.511 153.452 401.437C153.414 401.412 153.379 401.381 153.34 401.357C153.015 401.168 152.656 401.045 152.283 400.995C152.236 400.988 152.191 400.994 152.145 400.99C152.005 400.975 151.864 400.97 151.723 400.976C151.668 400.98 151.613 400.996 151.558 401.001C151.426 401.013 151.296 401.034 151.168 401.064C150.983 401.113 150.804 401.179 150.632 401.263L138.822 407.054L135.075 399.414L157.758 388.279C158.098 388.113 158.401 387.881 158.651 387.598C158.901 387.314 159.092 386.984 159.215 386.627C159.337 386.269 159.388 385.891 159.364 385.514C159.34 385.137 159.242 384.768 159.075 384.429L156.494 379.163L164.636 375.172C168.321 379.34 173.121 382.369 178.471 383.9C178.835 384.004 179.215 384.035 179.591 383.992C179.967 383.948 180.331 383.831 180.661 383.647C180.992 383.463 181.283 383.216 181.518 382.919C181.753 382.623 181.927 382.283 182.031 381.919C182.135 381.555 182.166 381.174 182.122 380.799C182.079 380.423 181.962 380.059 181.778 379.729C181.594 379.398 181.347 379.107 181.05 378.872C180.754 378.637 180.414 378.462 180.05 378.359C175.485 377.052 171.422 374.393 168.397 370.732C165.372 367.072 163.527 362.581 163.103 357.851C162.68 353.121 163.699 348.374 166.026 344.235C168.353 340.095 171.879 336.758 176.139 334.661L180.753 332.4L191.069 353.443C191.076 353.457 191.079 353.474 191.086 353.49C191.093 353.506 191.105 353.517 191.113 353.534L201.447 374.605L198.894 375.855C198.209 376.191 197.685 376.786 197.438 377.508C197.191 378.23 197.24 379.021 197.576 379.706C197.912 380.391 198.507 380.915 199.229 381.163C199.951 381.41 200.742 381.36 201.427 381.024L206.562 378.508C206.902 378.341 207.205 378.11 207.455 377.826C207.704 377.543 207.896 377.213 208.018 376.855C208.141 376.498 208.191 376.12 208.167 375.743C208.144 375.365 208.046 374.997 207.879 374.657L197.53 353.545L202.075 351.322C203.894 353.551 206.412 355.1 209.223 355.717C212.033 356.334 214.969 355.984 217.555 354.722C219.71 353.669 221.525 352.029 222.791 349.991C224.056 347.952 224.721 345.598 224.708 343.199C224.695 340.8 224.006 338.453 222.719 336.428C221.432 334.403 219.6 332.782 217.433 331.751C215.267 330.721 212.853 330.323 210.47 330.603C208.087 330.883 205.832 331.829 203.963 333.334C202.094 334.838 200.687 336.84 199.905 339.108C199.122 341.376 198.996 343.819 199.539 346.155L194.995 348.377L184.657 327.291C184.491 326.951 184.259 326.648 183.976 326.398C183.692 326.148 183.362 325.956 183.005 325.834C182.647 325.712 182.269 325.661 181.892 325.685C181.515 325.709 181.146 325.807 180.807 325.974L173.61 329.502C167.863 332.314 163.197 336.935 160.33 342.655C157.464 348.375 156.554 354.878 157.741 361.166L149.615 365.149L146.264 358.314C146.098 357.975 145.867 357.671 145.583 357.421C145.3 357.171 144.97 356.98 144.612 356.858C144.254 356.735 143.876 356.685 143.499 356.709C143.122 356.733 142.753 356.831 142.414 356.997L119.732 368.115L116.744 362.021L128.554 356.231C128.894 356.064 129.197 355.833 129.447 355.55C129.697 355.266 129.888 354.936 130.011 354.579C130.133 354.221 130.184 353.843 130.16 353.466C130.136 353.088 130.038 352.72 129.871 352.38L100.272 292.007C100.188 291.836 100.087 291.673 99.9706 291.522C99.8876 291.419 99.7975 291.323 99.7009 291.233C99.6607 291.193 99.6278 291.147 99.586 291.112C99.478 291.021 99.3634 290.938 99.2432 290.864C99.2049 290.839 99.1703 290.808 99.1315 290.785C98.8063 290.595 98.4467 290.472 98.0737 290.423C98.0274 290.416 97.9822 290.421 97.9364 290.417C97.7961 290.402 97.6549 290.398 97.5138 290.403C97.4587 290.407 97.4045 290.423 97.3488 290.428C97.2175 290.44 97.0872 290.461 96.9589 290.491C96.7742 290.54 96.5948 290.607 96.4234 290.691L78.2475 299.602L78.2412 299.605ZM88.8081 417.709L76.9278 393.466L83.3685 391.772L94.0994 413.66L88.8081 417.709ZM126.781 438.072L139.795 431.693L144.662 441.62L131.647 448.001L126.781 438.072ZM134.181 453.166L147.196 446.785L152.063 456.713L139.046 463.1L134.181 453.166ZM146.447 478.186L141.58 468.259L154.593 461.879L159.46 471.806L146.447 478.186ZM177.642 462.892L164.627 469.273L159.76 459.345L172.775 452.965L177.642 462.892ZM170.241 447.799L157.226 454.18L152.362 444.254L165.375 437.874L170.241 447.799ZM162.841 432.706L149.826 439.087L144.962 429.154L157.97 422.778L162.841 432.706ZM138.74 413.486L138.764 413.477L138.786 413.464L150.575 407.685L155.442 417.612L142.427 423.992L137.56 414.064L138.74 413.486ZM137.263 426.521L124.249 432.9L119.382 422.973L132.397 416.592L137.263 426.521ZM133.642 409.572L131.239 410.75L127.493 403.109L129.903 401.935L133.642 409.572ZM208.856 337.003C210.305 336.287 211.957 336.096 213.531 336.463C215.106 336.829 216.504 337.729 217.489 339.011C218.473 340.293 218.983 341.876 218.931 343.491C218.879 345.107 218.269 346.654 217.204 347.87C216.139 349.085 214.686 349.894 213.091 350.159C211.497 350.423 209.86 350.126 208.46 349.319C207.06 348.512 205.983 347.245 205.412 345.732C204.842 344.22 204.814 342.557 205.332 341.026C205.626 340.156 206.091 339.352 206.698 338.662C207.305 337.972 208.043 337.41 208.87 337.008L208.856 337.003ZM159.408 366.758C159.666 367.39 159.918 368.025 160.222 368.644C160.527 369.262 160.879 369.847 161.223 370.438L153.966 373.996L152.158 370.309L159.408 366.758ZM72.57 327.509L85.585 321.128L90.452 331.055L77.437 337.436L72.57 327.509ZM79.9693 342.601L92.9899 336.224L97.8569 346.151L84.842 352.532L79.9693 342.601ZM92.2428 367.625L87.3758 357.698L100.395 351.32L105.262 361.247L92.2428 367.625ZM114.564 370.648L112.164 371.825L109.176 365.731L110.368 365.147L111.568 364.558L114.564 370.648ZM123.436 352.331L111.634 358.117L110.438 358.703L105.571 348.776L118.586 342.395L123.436 352.331ZM116.037 337.244L103.028 343.621L98.1612 333.694L111.176 327.313L116.037 337.244ZM108.637 322.144L95.6238 328.524L90.7568 318.596L103.772 312.216L108.637 322.144ZM96.3705 297.124L101.237 307.052L88.2225 313.432L83.3555 303.505L96.3705 297.124ZM83.0558 315.964L70.0408 322.345L65.1738 312.418L78.1888 306.037L83.0558 315.964ZM247.011 326.09C249.282 330.69 250.616 335.697 250.935 340.817C251.254 345.938 250.551 351.071 248.868 355.917C248.621 356.639 248.097 357.233 247.412 357.569C246.727 357.905 245.937 357.955 245.215 357.709C244.493 357.462 243.898 356.938 243.562 356.253C243.227 355.568 243.177 354.777 243.424 354.055C244.845 349.92 245.437 345.545 245.165 341.181C244.893 336.817 243.762 332.549 241.839 328.622C239.915 324.695 237.235 321.187 233.953 318.297C230.671 315.408 226.851 313.195 222.712 311.784C221.99 311.537 221.396 311.013 221.06 310.328C220.724 309.643 220.674 308.852 220.921 308.13C221.168 307.408 221.692 306.814 222.377 306.478C223.062 306.142 223.852 306.092 224.574 306.339C229.436 307.981 233.923 310.573 237.774 313.964C241.626 317.354 244.766 321.476 247.011 326.09ZM234.105 350.868C235.106 347.957 235.522 344.877 235.33 341.805C235.139 338.733 234.342 335.729 232.987 332.965C231.632 330.202 229.745 327.732 227.434 325.699C225.123 323.666 222.434 322.109 219.52 321.118C218.798 320.871 218.203 320.347 217.867 319.662C217.531 318.977 217.481 318.186 217.728 317.464C217.975 316.742 218.499 316.148 219.184 315.812C219.869 315.476 220.66 315.426 221.382 315.673C225.011 316.909 228.36 318.849 231.238 321.382C234.116 323.915 236.466 326.99 238.154 330.432C239.841 333.875 240.833 337.616 241.073 341.442C241.313 345.268 240.795 349.104 239.55 352.73C239.303 353.452 238.779 354.047 238.094 354.383C237.409 354.718 236.618 354.768 235.896 354.521C235.174 354.275 234.58 353.751 234.244 353.066C233.908 352.38 233.858 351.59 234.105 350.868ZM194.633 381.023C194.71 381.394 194.714 381.776 194.643 382.148C194.572 382.52 194.429 382.874 194.221 383.19C194.013 383.507 193.745 383.779 193.432 383.991C193.119 384.204 192.767 384.352 192.396 384.429C191.242 384.666 190.075 384.833 188.901 384.929C188.52 384.968 188.135 384.931 187.769 384.82C187.403 384.708 187.063 384.525 186.768 384.28C186.474 384.036 186.231 383.735 186.054 383.395C185.877 383.056 185.77 382.684 185.739 382.303C185.707 381.921 185.753 381.537 185.871 381.173C185.99 380.81 186.181 380.473 186.431 380.184C186.682 379.894 186.988 379.658 187.331 379.488C187.674 379.318 188.047 379.219 188.429 379.195C189.371 379.117 190.306 378.982 191.231 378.791C191.602 378.714 191.984 378.71 192.356 378.781C192.728 378.852 193.082 378.995 193.399 379.203C193.715 379.41 193.987 379.679 194.2 379.992C194.412 380.305 194.561 380.657 194.637 381.028L194.633 381.023ZM175.331 347.905C174.589 348.965 174.001 350.125 173.583 351.35C172.998 353.044 172.755 354.837 172.868 356.625C172.981 358.413 173.447 360.162 174.24 361.768C174.407 362.108 174.505 362.476 174.528 362.853C174.552 363.231 174.502 363.609 174.379 363.966C174.257 364.324 174.065 364.654 173.816 364.937C173.566 365.221 173.263 365.452 172.923 365.619C172.584 365.785 172.215 365.883 171.838 365.907C171.461 365.931 171.083 365.88 170.726 365.758C170.368 365.635 170.038 365.444 169.755 365.194C169.471 364.944 169.24 364.641 169.073 364.302C167.946 362.017 167.283 359.532 167.122 356.989C166.961 354.447 167.307 351.898 168.138 349.49C168.731 347.753 169.567 346.108 170.62 344.605C170.834 344.289 171.109 344.019 171.429 343.81C171.749 343.602 172.107 343.459 172.482 343.39C172.857 343.321 173.243 343.328 173.616 343.409C173.988 343.491 174.341 343.646 174.654 343.865C174.966 344.084 175.232 344.363 175.435 344.686C175.639 345.009 175.776 345.369 175.839 345.746C175.902 346.122 175.889 346.507 175.802 346.879C175.714 347.25 175.554 347.601 175.33 347.91L175.331 347.905Z" fill="#446193"/>
<circle cx="208.052" cy="460.277" r="4.4399" transform="rotate(3.94826 208.052 460.277)" fill="#446193"/>
</g>
<circle cx="7.5" cy="295.5" r="7.5" fill="#446193"/>
<path d="M176.503 257.556C178.38 259.332 182 259.506 182 260.809C182 262.112 178.328 262.211 176.503 264.036C174.678 265.861 174.177 269.821 173 269.809C171.823 269.796 171.489 266.34 169.663 264.396C167.714 262.321 164 262.143 164 260.809C164 259.475 168.122 259.18 170.023 256.836C171.454 255.072 171.819 251.809 173 251.809C174.181 251.809 174.491 255.653 176.503 257.556Z" fill="#446193"/>
<path d="M458.05 241.2L454.746 251H453.654L450.784 242.642L447.9 251H446.822L443.518 241.2H444.582L447.41 249.628L450.336 241.2H451.302L454.186 249.67L457.056 241.2H458.05ZM465.591 247.626H459.431C459.487 248.391 459.781 249.012 460.313 249.488C460.845 249.955 461.517 250.188 462.329 250.188C462.786 250.188 463.206 250.109 463.589 249.95C463.972 249.782 464.303 249.539 464.583 249.222L465.143 249.866C464.816 250.258 464.406 250.557 463.911 250.762C463.426 250.967 462.889 251.07 462.301 251.07C461.545 251.07 460.873 250.911 460.285 250.594C459.706 250.267 459.254 249.819 458.927 249.25C458.6 248.681 458.437 248.037 458.437 247.318C458.437 246.599 458.591 245.955 458.899 245.386C459.216 244.817 459.646 244.373 460.187 244.056C460.738 243.739 461.354 243.58 462.035 243.58C462.716 243.58 463.328 243.739 463.869 244.056C464.41 244.373 464.835 244.817 465.143 245.386C465.451 245.946 465.605 246.59 465.605 247.318L465.591 247.626ZM462.035 244.434C461.326 244.434 460.728 244.663 460.243 245.12C459.767 245.568 459.496 246.156 459.431 246.884H464.653C464.588 246.156 464.312 245.568 463.827 245.12C463.351 244.663 462.754 244.434 462.035 244.434ZM473.868 243.58C474.83 243.58 475.567 243.823 476.08 244.308C476.594 244.784 476.85 245.493 476.85 246.436V251H475.898V249.852C475.674 250.235 475.343 250.533 474.904 250.748C474.475 250.963 473.962 251.07 473.364 251.07C472.543 251.07 471.89 250.874 471.404 250.482C470.919 250.09 470.676 249.572 470.676 248.928C470.676 248.303 470.9 247.799 471.348 247.416C471.806 247.033 472.529 246.842 473.518 246.842H475.856V246.394C475.856 245.759 475.679 245.279 475.324 244.952C474.97 244.616 474.452 244.448 473.77 244.448C473.304 244.448 472.856 244.527 472.426 244.686C471.997 244.835 471.628 245.045 471.32 245.316L470.872 244.574C471.246 244.257 471.694 244.014 472.216 243.846C472.739 243.669 473.29 243.58 473.868 243.58ZM473.518 250.286C474.078 250.286 474.559 250.16 474.96 249.908C475.362 249.647 475.66 249.273 475.856 248.788V247.584H473.546C472.286 247.584 471.656 248.023 471.656 248.9C471.656 249.329 471.82 249.67 472.146 249.922C472.473 250.165 472.93 250.286 473.518 250.286ZM480.502 245.078C480.735 244.583 481.081 244.21 481.538 243.958C482.005 243.706 482.579 243.58 483.26 243.58V244.546L483.022 244.532C482.247 244.532 481.641 244.77 481.202 245.246C480.763 245.722 480.544 246.389 480.544 247.248V251H479.55V243.636H480.502V245.078ZM491.403 247.626H485.243C485.299 248.391 485.593 249.012 486.125 249.488C486.657 249.955 487.329 250.188 488.141 250.188C488.599 250.188 489.019 250.109 489.401 249.95C489.784 249.782 490.115 249.539 490.395 249.222L490.955 249.866C490.629 250.258 490.218 250.557 489.723 250.762C489.238 250.967 488.701 251.07 488.113 251.07C487.357 251.07 486.685 250.911 486.097 250.594C485.519 250.267 485.066 249.819 484.739 249.25C484.413 248.681 484.249 248.037 484.249 247.318C484.249 246.599 484.403 245.955 484.711 245.386C485.029 244.817 485.458 244.373 485.999 244.056C486.55 243.739 487.166 243.58 487.847 243.58C488.529 243.58 489.14 243.739 489.681 244.056C490.223 244.373 490.647 244.817 490.955 245.386C491.263 245.946 491.417 246.59 491.417 247.318L491.403 247.626ZM487.847 244.434C487.138 244.434 486.541 244.663 486.055 245.12C485.579 245.568 485.309 246.156 485.243 246.884H490.465C490.4 246.156 490.125 245.568 489.639 245.12C489.163 244.663 488.566 244.434 487.847 244.434ZM507.913 243.636L505.127 251H504.189L501.865 244.966L499.541 251H498.603L495.831 243.636H496.783L499.093 249.894L501.459 243.636H502.313L504.665 249.894L507.003 243.636H507.913ZM512.214 251.07C511.505 251.07 510.866 250.911 510.296 250.594C509.727 250.267 509.279 249.819 508.952 249.25C508.626 248.681 508.462 248.037 508.462 247.318C508.462 246.599 508.626 245.955 508.952 245.386C509.279 244.817 509.727 244.373 510.296 244.056C510.866 243.739 511.505 243.58 512.214 243.58C512.924 243.58 513.563 243.739 514.132 244.056C514.702 244.373 515.145 244.817 515.462 245.386C515.789 245.955 515.952 246.599 515.952 247.318C515.952 248.037 515.789 248.681 515.462 249.25C515.145 249.819 514.702 250.267 514.132 250.594C513.563 250.911 512.924 251.07 512.214 251.07ZM512.214 250.188C512.737 250.188 513.204 250.071 513.614 249.838C514.034 249.595 514.361 249.255 514.594 248.816C514.828 248.377 514.944 247.878 514.944 247.318C514.944 246.758 514.828 246.259 514.594 245.82C514.361 245.381 514.034 245.045 513.614 244.812C513.204 244.569 512.737 244.448 512.214 244.448C511.692 244.448 511.22 244.569 510.8 244.812C510.39 245.045 510.063 245.381 509.82 245.82C509.587 246.259 509.47 246.758 509.47 247.318C509.47 247.878 509.587 248.377 509.82 248.816C510.063 249.255 510.39 249.595 510.8 249.838C511.22 250.071 511.692 250.188 512.214 250.188ZM518.934 245.078C519.167 244.583 519.512 244.21 519.97 243.958C520.436 243.706 521.01 243.58 521.692 243.58V244.546L521.454 244.532C520.679 244.532 520.072 244.77 519.634 245.246C519.195 245.722 518.976 246.389 518.976 247.248V251H517.982V243.636H518.934V245.078ZM526.221 247.304L524.485 248.9V251H523.491V240.612H524.485V247.654L528.881 243.636H530.113L526.963 246.646L530.407 251H529.189L526.221 247.304ZM531.79 243.636H532.784V251H531.79V243.636ZM532.294 242.026C532.089 242.026 531.916 241.956 531.776 241.816C531.636 241.676 531.566 241.508 531.566 241.312C531.566 241.125 531.636 240.962 531.776 240.822C531.916 240.682 532.089 240.612 532.294 240.612C532.5 240.612 532.672 240.682 532.812 240.822C532.952 240.953 533.022 241.111 533.022 241.298C533.022 241.503 532.952 241.676 532.812 241.816C532.672 241.956 532.5 242.026 532.294 242.026ZM539.302 243.58C540.226 243.58 540.959 243.851 541.5 244.392C542.051 244.924 542.326 245.703 542.326 246.73V251H541.332V246.828C541.332 246.063 541.141 245.479 540.758 245.078C540.375 244.677 539.829 244.476 539.12 244.476C538.327 244.476 537.697 244.714 537.23 245.19C536.773 245.657 536.544 246.305 536.544 247.136V251H535.55V243.636H536.502V244.994C536.773 244.546 537.146 244.201 537.622 243.958C538.107 243.706 538.667 243.58 539.302 243.58ZM551.87 243.636V250.104C551.87 251.355 551.562 252.279 550.946 252.876C550.339 253.483 549.42 253.786 548.188 253.786C547.507 253.786 546.858 253.683 546.242 253.478C545.635 253.282 545.141 253.007 544.758 252.652L545.262 251.896C545.617 252.213 546.046 252.461 546.55 252.638C547.063 252.815 547.6 252.904 548.16 252.904C549.093 252.904 549.779 252.685 550.218 252.246C550.657 251.817 550.876 251.145 550.876 250.23V249.292C550.568 249.759 550.162 250.113 549.658 250.356C549.163 250.599 548.613 250.72 548.006 250.72C547.315 250.72 546.685 250.571 546.116 250.272C545.556 249.964 545.113 249.539 544.786 248.998C544.469 248.447 544.31 247.827 544.31 247.136C544.31 246.445 544.469 245.829 544.786 245.288C545.113 244.747 545.556 244.327 546.116 244.028C546.676 243.729 547.306 243.58 548.006 243.58C548.631 243.58 549.196 243.706 549.7 243.958C550.204 244.21 550.61 244.574 550.918 245.05V243.636H551.87ZM548.104 249.838C548.636 249.838 549.117 249.726 549.546 249.502C549.975 249.269 550.307 248.947 550.54 248.536C550.783 248.125 550.904 247.659 550.904 247.136C550.904 246.613 550.783 246.151 550.54 245.75C550.307 245.339 549.975 245.022 549.546 244.798C549.126 244.565 548.645 244.448 548.104 244.448C547.572 244.448 547.091 244.56 546.662 244.784C546.242 245.008 545.911 245.325 545.668 245.736C545.435 246.147 545.318 246.613 545.318 247.136C545.318 247.659 545.435 248.125 545.668 248.536C545.911 248.947 546.242 249.269 546.662 249.502C547.091 249.726 547.572 249.838 548.104 249.838ZM561.324 251.07C560.614 251.07 559.975 250.911 559.406 250.594C558.836 250.267 558.388 249.819 558.062 249.25C557.735 248.681 557.572 248.037 557.572 247.318C557.572 246.599 557.735 245.955 558.062 245.386C558.388 244.817 558.836 244.373 559.406 244.056C559.975 243.739 560.614 243.58 561.324 243.58C562.033 243.58 562.672 243.739 563.242 244.056C563.811 244.373 564.254 244.817 564.572 245.386C564.898 245.955 565.062 246.599 565.062 247.318C565.062 248.037 564.898 248.681 564.572 249.25C564.254 249.819 563.811 250.267 563.242 250.594C562.672 250.911 562.033 251.07 561.324 251.07ZM561.324 250.188C561.846 250.188 562.313 250.071 562.724 249.838C563.144 249.595 563.47 249.255 563.704 248.816C563.937 248.377 564.054 247.878 564.054 247.318C564.054 246.758 563.937 246.259 563.704 245.82C563.47 245.381 563.144 245.045 562.724 244.812C562.313 244.569 561.846 244.448 561.324 244.448C560.801 244.448 560.33 244.569 559.91 244.812C559.499 245.045 559.172 245.381 558.93 245.82C558.696 246.259 558.58 246.758 558.58 247.318C558.58 247.878 558.696 248.377 558.93 248.816C559.172 249.255 559.499 249.595 559.91 249.838C560.33 250.071 560.801 250.188 561.324 250.188ZM570.843 243.58C571.767 243.58 572.5 243.851 573.041 244.392C573.592 244.924 573.867 245.703 573.867 246.73V251H572.873V246.828C572.873 246.063 572.682 245.479 572.299 245.078C571.916 244.677 571.37 244.476 570.661 244.476C569.868 244.476 569.238 244.714 568.771 245.19C568.314 245.657 568.085 246.305 568.085 247.136V251H567.091V243.636H568.043V244.994C568.314 244.546 568.687 244.201 569.163 243.958C569.648 243.706 570.208 243.58 570.843 243.58ZM582.666 241.382C582.236 241.382 581.91 241.499 581.686 241.732C581.471 241.965 581.364 242.311 581.364 242.768V243.636H583.632V244.476H581.392V251H580.398V244.476H579.082V243.636H580.398V242.726C580.398 242.054 580.589 241.522 580.972 241.13C581.364 240.738 581.914 240.542 582.624 240.542C582.904 240.542 583.174 240.584 583.436 240.668C583.697 240.743 583.916 240.855 584.094 241.004L583.758 241.746C583.468 241.503 583.104 241.382 582.666 241.382ZM586.096 243.636H587.09V251H586.096V243.636ZM586.6 242.026C586.394 242.026 586.222 241.956 586.082 241.816C585.942 241.676 585.872 241.508 585.872 241.312C585.872 241.125 585.942 240.962 586.082 240.822C586.222 240.682 586.394 240.612 586.6 240.612C586.805 240.612 586.978 240.682 587.118 240.822C587.258 240.953 587.328 241.111 587.328 241.298C587.328 241.503 587.258 241.676 587.118 241.816C586.978 241.956 586.805 242.026 586.6 242.026ZM594.558 251L592.22 247.92L589.868 251H588.748L591.66 247.22L588.888 243.636H590.008L592.22 246.52L594.432 243.636H595.524L592.752 247.22L595.692 251H594.558ZM597.347 243.636H598.341V251H597.347V243.636ZM597.851 242.026C597.646 242.026 597.473 241.956 597.333 241.816C597.193 241.676 597.123 241.508 597.123 241.312C597.123 241.125 597.193 240.962 597.333 240.822C597.473 240.682 597.646 240.612 597.851 240.612C598.056 240.612 598.229 240.682 598.369 240.822C598.509 240.953 598.579 241.111 598.579 241.298C598.579 241.503 598.509 241.676 598.369 241.816C598.229 241.956 598.056 242.026 597.851 242.026ZM604.859 243.58C605.783 243.58 606.515 243.851 607.057 244.392C607.607 244.924 607.883 245.703 607.883 246.73V251H606.889V246.828C606.889 246.063 606.697 245.479 606.315 245.078C605.932 244.677 605.386 244.476 604.677 244.476C603.883 244.476 603.253 244.714 602.787 245.19C602.329 245.657 602.101 246.305 602.101 247.136V251H601.107V243.636H602.059V244.994C602.329 244.546 602.703 244.201 603.179 243.958C603.664 243.706 604.224 243.58 604.859 243.58ZM617.427 243.636V250.104C617.427 251.355 617.119 252.279 616.503 252.876C615.896 253.483 614.977 253.786 613.745 253.786C613.063 253.786 612.415 253.683 611.799 253.478C611.192 253.282 610.697 253.007 610.315 252.652L610.819 251.896C611.173 252.213 611.603 252.461 612.107 252.638C612.62 252.815 613.157 252.904 613.717 252.904C614.65 252.904 615.336 252.685 615.775 252.246C616.213 251.817 616.433 251.145 616.433 250.23V249.292C616.125 249.759 615.719 250.113 615.215 250.356C614.72 250.599 614.169 250.72 613.563 250.72C612.872 250.72 612.242 250.571 611.673 250.272C611.113 249.964 610.669 249.539 610.343 248.998C610.025 248.447 609.867 247.827 609.867 247.136C609.867 246.445 610.025 245.829 610.343 245.288C610.669 244.747 611.113 244.327 611.673 244.028C612.233 243.729 612.863 243.58 613.563 243.58C614.188 243.58 614.753 243.706 615.257 243.958C615.761 244.21 616.167 244.574 616.475 245.05V243.636H617.427ZM613.661 249.838C614.193 249.838 614.673 249.726 615.103 249.502C615.532 249.269 615.863 248.947 616.097 248.536C616.339 248.125 616.461 247.659 616.461 247.136C616.461 246.613 616.339 246.151 616.097 245.75C615.863 245.339 615.532 245.022 615.103 244.798C614.683 244.565 614.202 244.448 613.661 244.448C613.129 244.448 612.648 244.56 612.219 244.784C611.799 245.008 611.467 245.325 611.225 245.736C610.991 246.147 610.875 246.613 610.875 247.136C610.875 247.659 610.991 248.125 611.225 248.536C611.467 248.947 611.799 249.269 612.219 249.502C612.648 249.726 613.129 249.838 613.661 249.838ZM627.748 250.552C627.562 250.72 627.328 250.851 627.048 250.944C626.778 251.028 626.493 251.07 626.194 251.07C625.504 251.07 624.972 250.883 624.598 250.51C624.225 250.137 624.038 249.609 624.038 248.928V244.476H622.722V243.636H624.038V242.026H625.032V243.636H627.272V244.476H625.032V248.872C625.032 249.311 625.14 249.647 625.354 249.88C625.578 250.104 625.896 250.216 626.306 250.216C626.512 250.216 626.708 250.183 626.894 250.118C627.09 250.053 627.258 249.959 627.398 249.838L627.748 250.552ZM633.31 243.58C634.234 243.58 634.967 243.851 635.508 244.392C636.059 244.924 636.334 245.703 636.334 246.73V251H635.34V246.828C635.34 246.063 635.149 245.479 634.766 245.078C634.383 244.677 633.837 244.476 633.128 244.476C632.335 244.476 631.705 244.714 631.238 245.19C630.781 245.657 630.552 246.305 630.552 247.136V251H629.558V240.612H630.552V244.924C630.823 244.495 631.196 244.163 631.672 243.93C632.148 243.697 632.694 243.58 633.31 243.58ZM645.472 247.626H639.312C639.368 248.391 639.662 249.012 640.194 249.488C640.726 249.955 641.398 250.188 642.21 250.188C642.667 250.188 643.087 250.109 643.47 249.95C643.852 249.782 644.184 249.539 644.464 249.222L645.024 249.866C644.697 250.258 644.286 250.557 643.792 250.762C643.306 250.967 642.77 251.07 642.182 251.07C641.426 251.07 640.754 250.911 640.166 250.594C639.587 250.267 639.134 249.819 638.808 249.25C638.481 248.681 638.318 248.037 638.318 247.318C638.318 246.599 638.472 245.955 638.78 245.386C639.097 244.817 639.526 244.373 640.068 244.056C640.618 243.739 641.234 243.58 641.916 243.58C642.597 243.58 643.208 243.739 643.75 244.056C644.291 244.373 644.716 244.817 645.024 245.386C645.332 245.946 645.486 246.59 645.486 247.318L645.472 247.626ZM641.916 244.434C641.206 244.434 640.609 244.663 640.124 245.12C639.648 245.568 639.377 246.156 639.312 246.884H644.534C644.468 246.156 644.193 245.568 643.708 245.12C643.232 244.663 642.634 244.434 641.916 244.434ZM654.967 243.58C655.658 243.58 656.283 243.739 656.843 244.056C657.403 244.364 657.842 244.803 658.159 245.372C658.476 245.941 658.635 246.59 658.635 247.318C658.635 248.055 658.476 248.709 658.159 249.278C657.842 249.847 657.403 250.291 656.843 250.608C656.292 250.916 655.667 251.07 654.967 251.07C654.37 251.07 653.828 250.949 653.343 250.706C652.867 250.454 652.475 250.09 652.167 249.614V253.716H651.173V243.636H652.125V245.092C652.424 244.607 652.816 244.233 653.301 243.972C653.796 243.711 654.351 243.58 654.967 243.58ZM654.897 250.188C655.41 250.188 655.877 250.071 656.297 249.838C656.717 249.595 657.044 249.255 657.277 248.816C657.52 248.377 657.641 247.878 657.641 247.318C657.641 246.758 657.52 246.263 657.277 245.834C657.044 245.395 656.717 245.055 656.297 244.812C655.877 244.569 655.41 244.448 654.897 244.448C654.374 244.448 653.903 244.569 653.483 244.812C653.072 245.055 652.746 245.395 652.503 245.834C652.27 246.263 652.153 246.758 652.153 247.318C652.153 247.878 652.27 248.377 652.503 248.816C652.746 249.255 653.072 249.595 653.483 249.838C653.903 250.071 654.374 250.188 654.897 250.188ZM661.613 245.078C661.847 244.583 662.192 244.21 662.649 243.958C663.116 243.706 663.69 243.58 664.371 243.58V244.546L664.133 244.532C663.359 244.532 662.752 244.77 662.313 245.246C661.875 245.722 661.655 246.389 661.655 247.248V251H660.661V243.636H661.613V245.078ZM669.113 251.07C668.403 251.07 667.764 250.911 667.195 250.594C666.625 250.267 666.177 249.819 665.851 249.25C665.524 248.681 665.361 248.037 665.361 247.318C665.361 246.599 665.524 245.955 665.851 245.386C666.177 244.817 666.625 244.373 667.195 244.056C667.764 243.739 668.403 243.58 669.113 243.58C669.822 243.58 670.461 243.739 671.031 244.056C671.6 244.373 672.043 244.817 672.361 245.386C672.687 245.955 672.851 246.599 672.851 247.318C672.851 248.037 672.687 248.681 672.361 249.25C672.043 249.819 671.6 250.267 671.031 250.594C670.461 250.911 669.822 251.07 669.113 251.07ZM669.113 250.188C669.635 250.188 670.102 250.071 670.513 249.838C670.933 249.595 671.259 249.255 671.493 248.816C671.726 248.377 671.843 247.878 671.843 247.318C671.843 246.758 671.726 246.259 671.493 245.82C671.259 245.381 670.933 245.045 670.513 244.812C670.102 244.569 669.635 244.448 669.113 244.448C668.59 244.448 668.119 244.569 667.699 244.812C667.288 245.045 666.961 245.381 666.719 245.82C666.485 246.259 666.369 246.758 666.369 247.318C666.369 247.878 666.485 248.377 666.719 248.816C666.961 249.255 667.288 249.595 667.699 249.838C668.119 250.071 668.59 250.188 669.113 250.188ZM678.674 243.58C679.365 243.58 679.99 243.739 680.55 244.056C681.11 244.364 681.549 244.803 681.866 245.372C682.183 245.941 682.342 246.59 682.342 247.318C682.342 248.046 682.183 248.695 681.866 249.264C681.549 249.833 681.11 250.277 680.55 250.594C679.99 250.911 679.365 251.07 678.674 251.07C678.058 251.07 677.503 250.939 677.008 250.678C676.523 250.417 676.131 250.039 675.832 249.544V251H674.88V240.612H675.874V245.036C676.182 244.56 676.574 244.201 677.05 243.958C677.535 243.706 678.077 243.58 678.674 243.58ZM678.604 250.188C679.117 250.188 679.584 250.071 680.004 249.838C680.424 249.595 680.751 249.255 680.984 248.816C681.227 248.377 681.348 247.878 681.348 247.318C681.348 246.758 681.227 246.259 680.984 245.82C680.751 245.381 680.424 245.045 680.004 244.812C679.584 244.569 679.117 244.448 678.604 244.448C678.081 244.448 677.61 244.569 677.19 244.812C676.779 245.045 676.453 245.381 676.21 245.82C675.977 246.259 675.86 246.758 675.86 247.318C675.86 247.878 675.977 248.377 676.21 248.816C676.453 249.255 676.779 249.595 677.19 249.838C677.61 250.071 678.081 250.188 678.604 250.188ZM684.368 240.612H685.362V251H684.368V240.612ZM694.54 247.626H688.38C688.436 248.391 688.73 249.012 689.262 249.488C689.794 249.955 690.466 250.188 691.278 250.188C691.736 250.188 692.156 250.109 692.538 249.95C692.921 249.782 693.252 249.539 693.532 249.222L694.092 249.866C693.766 250.258 693.355 250.557 692.86 250.762C692.375 250.967 691.838 251.07 691.25 251.07C690.494 251.07 689.822 250.911 689.234 250.594C688.656 250.267 688.203 249.819 687.876 249.25C687.55 248.681 687.386 248.037 687.386 247.318C687.386 246.599 687.54 245.955 687.848 245.386C688.166 244.817 688.595 244.373 689.136 244.056C689.687 243.739 690.303 243.58 690.984 243.58C691.666 243.58 692.277 243.739 692.818 244.056C693.36 244.373 693.784 244.817 694.092 245.386C694.4 245.946 694.554 246.59 694.554 247.318L694.54 247.626ZM690.984 244.434C690.275 244.434 689.678 244.663 689.192 245.12C688.716 245.568 688.446 246.156 688.38 246.884H693.602C693.537 246.156 693.262 245.568 692.776 245.12C692.3 244.663 691.703 244.434 690.984 244.434ZM705.761 243.58C706.685 243.58 707.409 243.846 707.931 244.378C708.463 244.91 708.729 245.694 708.729 246.73V251H707.735V246.828C707.735 246.063 707.549 245.479 707.175 245.078C706.811 244.677 706.293 244.476 705.621 244.476C704.856 244.476 704.254 244.714 703.815 245.19C703.377 245.657 703.157 246.305 703.157 247.136V251H702.163V246.828C702.163 246.063 701.977 245.479 701.603 245.078C701.239 244.677 700.717 244.476 700.035 244.476C699.279 244.476 698.677 244.714 698.229 245.19C697.791 245.657 697.571 246.305 697.571 247.136V251H696.577V243.636H697.529V244.98C697.791 244.532 698.155 244.187 698.621 243.944C699.088 243.701 699.625 243.58 700.231 243.58C700.847 243.58 701.379 243.711 701.827 243.972C702.285 244.233 702.625 244.621 702.849 245.134C703.12 244.649 703.507 244.271 704.011 244C704.525 243.72 705.108 243.58 705.761 243.58ZM711.523 251.07C711.318 251.07 711.14 250.995 710.991 250.846C710.851 250.697 710.781 250.515 710.781 250.3C710.781 250.085 710.851 249.908 710.991 249.768C711.14 249.619 711.318 249.544 711.523 249.544C711.728 249.544 711.906 249.619 712.055 249.768C712.204 249.908 712.279 250.085 712.279 250.3C712.279 250.515 712.204 250.697 712.055 250.846C711.906 250.995 711.728 251.07 711.523 251.07ZM721.934 241.2C723.185 241.2 724.165 241.499 724.874 242.096C725.583 242.693 725.938 243.515 725.938 244.56C725.938 245.605 725.583 246.427 724.874 247.024C724.165 247.612 723.185 247.906 721.934 247.906H719.302V251H718.266V241.2H721.934ZM721.906 246.996C722.877 246.996 723.619 246.786 724.132 246.366C724.645 245.937 724.902 245.335 724.902 244.56C724.902 243.767 724.645 243.16 724.132 242.74C723.619 242.311 722.877 242.096 721.906 242.096H719.302V246.996H721.906ZM728.105 240.612H729.099V251H728.105V240.612ZM738.277 247.626H732.117C732.173 248.391 732.467 249.012 732.999 249.488C733.531 249.955 734.203 250.188 735.015 250.188C735.472 250.188 735.892 250.109 736.275 249.95C736.657 249.782 736.989 249.539 737.269 249.222L737.829 249.866C737.502 250.258 737.091 250.557 736.597 250.762C736.111 250.967 735.575 251.07 734.987 251.07C734.231 251.07 733.559 250.911 732.971 250.594C732.392 250.267 731.939 249.819 731.613 249.25C731.286 248.681 731.123 248.037 731.123 247.318C731.123 246.599 731.277 245.955 731.585 245.386C731.902 244.817 732.331 244.373 732.873 244.056C733.423 243.739 734.039 243.58 734.721 243.58C735.402 243.58 736.013 243.739 736.555 244.056C737.096 244.373 737.521 244.817 737.829 245.386C738.137 245.946 738.291 246.59 738.291 247.318L738.277 247.626ZM734.721 244.434C734.011 244.434 733.414 244.663 732.929 245.12C732.453 245.568 732.182 246.156 732.117 246.884H737.339C737.273 246.156 736.998 245.568 736.513 245.12C736.037 244.663 735.439 244.434 734.721 244.434ZM742.685 243.58C743.646 243.58 744.383 243.823 744.897 244.308C745.41 244.784 745.667 245.493 745.667 246.436V251H744.715V249.852C744.491 250.235 744.159 250.533 743.721 250.748C743.291 250.963 742.778 251.07 742.181 251.07C741.359 251.07 740.706 250.874 740.221 250.482C739.735 250.09 739.493 249.572 739.493 248.928C739.493 248.303 739.717 247.799 740.165 247.416C740.622 247.033 741.345 246.842 742.335 246.842H744.673V246.394C744.673 245.759 744.495 245.279 744.141 244.952C743.786 244.616 743.268 244.448 742.587 244.448C742.12 244.448 741.672 244.527 741.243 244.686C740.813 244.835 740.445 245.045 740.137 245.316L739.689 244.574C740.062 244.257 740.51 244.014 741.033 243.846C741.555 243.669 742.106 243.58 742.685 243.58ZM742.335 250.286C742.895 250.286 743.375 250.16 743.777 249.908C744.178 249.647 744.477 249.273 744.673 248.788V247.584H742.363C741.103 247.584 740.473 248.023 740.473 248.9C740.473 249.329 740.636 249.67 740.963 249.922C741.289 250.165 741.747 250.286 742.335 250.286ZM750.34 251.07C749.743 251.07 749.169 250.986 748.618 250.818C748.077 250.641 747.652 250.421 747.344 250.16L747.792 249.376C748.1 249.619 748.488 249.819 748.954 249.978C749.421 250.127 749.906 250.202 750.41 250.202C751.082 250.202 751.577 250.099 751.894 249.894C752.221 249.679 752.384 249.381 752.384 248.998C752.384 248.727 752.296 248.517 752.118 248.368C751.941 248.209 751.717 248.093 751.446 248.018C751.176 247.934 750.816 247.855 750.368 247.78C749.771 247.668 749.29 247.556 748.926 247.444C748.562 247.323 748.25 247.122 747.988 246.842C747.736 246.562 747.61 246.175 747.61 245.68C747.61 245.064 747.867 244.56 748.38 244.168C748.894 243.776 749.608 243.58 750.522 243.58C750.998 243.58 751.474 243.645 751.95 243.776C752.426 243.897 752.818 244.061 753.126 244.266L752.692 245.064C752.086 244.644 751.362 244.434 750.522 244.434C749.888 244.434 749.407 244.546 749.08 244.77C748.763 244.994 748.604 245.288 748.604 245.652C748.604 245.932 748.693 246.156 748.87 246.324C749.057 246.492 749.286 246.618 749.556 246.702C749.827 246.777 750.2 246.856 750.676 246.94C751.264 247.052 751.736 247.164 752.09 247.276C752.445 247.388 752.748 247.579 753 247.85C753.252 248.121 753.378 248.494 753.378 248.97C753.378 249.614 753.108 250.127 752.566 250.51C752.034 250.883 751.292 251.07 750.34 251.07ZM761.628 247.626H755.468C755.524 248.391 755.818 249.012 756.35 249.488C756.882 249.955 757.554 250.188 758.366 250.188C758.823 250.188 759.243 250.109 759.626 249.95C760.009 249.782 760.34 249.539 760.62 249.222L761.18 249.866C760.853 250.258 760.443 250.557 759.948 250.762C759.463 250.967 758.926 251.07 758.338 251.07C757.582 251.07 756.91 250.911 756.322 250.594C755.743 250.267 755.291 249.819 754.964 249.25C754.637 248.681 754.474 248.037 754.474 247.318C754.474 246.599 754.628 245.955 754.936 245.386C755.253 244.817 755.683 244.373 756.224 244.056C756.775 243.739 757.391 243.58 758.072 243.58C758.753 243.58 759.365 243.739 759.906 244.056C760.447 244.373 760.872 244.817 761.18 245.386C761.488 245.946 761.642 246.59 761.642 247.318L761.628 247.626ZM758.072 244.434C757.363 244.434 756.765 244.663 756.28 245.12C755.804 245.568 755.533 246.156 755.468 246.884H760.69C760.625 246.156 760.349 245.568 759.864 245.12C759.388 244.663 758.791 244.434 758.072 244.434ZM771.207 250.552C771.021 250.72 770.787 250.851 770.507 250.944C770.237 251.028 769.952 251.07 769.653 251.07C768.963 251.07 768.431 250.883 768.057 250.51C767.684 250.137 767.497 249.609 767.497 248.928V244.476H766.181V243.636H767.497V242.026H768.491V243.636H770.731V244.476H768.491V248.872C768.491 249.311 768.599 249.647 768.813 249.88C769.037 250.104 769.355 250.216 769.765 250.216C769.971 250.216 770.167 250.183 770.353 250.118C770.549 250.053 770.717 249.959 770.857 249.838L771.207 250.552ZM773.969 245.078C774.202 244.583 774.548 244.21 775.005 243.958C775.472 243.706 776.046 243.58 776.727 243.58V244.546L776.489 244.532C775.714 244.532 775.108 244.77 774.669 245.246C774.23 245.722 774.011 246.389 774.011 247.248V251H773.017V243.636H773.969V245.078ZM785.029 243.636L781.347 251.882C781.048 252.573 780.703 253.063 780.311 253.352C779.919 253.641 779.448 253.786 778.897 253.786C778.542 253.786 778.211 253.73 777.903 253.618C777.595 253.506 777.329 253.338 777.105 253.114L777.567 252.372C777.94 252.745 778.388 252.932 778.911 252.932C779.247 252.932 779.532 252.839 779.765 252.652C780.008 252.465 780.232 252.148 780.437 251.7L780.759 250.986L777.469 243.636H778.505L781.277 249.894L784.049 243.636H785.029ZM792.669 243.58C793.63 243.58 794.368 243.823 794.881 244.308C795.394 244.784 795.651 245.493 795.651 246.436V251H794.699V249.852C794.475 250.235 794.144 250.533 793.705 250.748C793.276 250.963 792.762 251.07 792.165 251.07C791.344 251.07 790.69 250.874 790.205 250.482C789.72 250.09 789.477 249.572 789.477 248.928C789.477 248.303 789.701 247.799 790.149 247.416C790.606 247.033 791.33 246.842 792.319 246.842H794.657V246.394C794.657 245.759 794.48 245.279 794.125 244.952C793.77 244.616 793.252 244.448 792.571 244.448C792.104 244.448 791.656 244.527 791.227 244.686C790.798 244.835 790.429 245.045 790.121 245.316L789.673 244.574C790.046 244.257 790.494 244.014 791.017 243.846C791.54 243.669 792.09 243.58 792.669 243.58ZM792.319 250.286C792.879 250.286 793.36 250.16 793.761 249.908C794.162 249.647 794.461 249.273 794.657 248.788V247.584H792.347C791.087 247.584 790.457 248.023 790.457 248.9C790.457 249.329 790.62 249.67 790.947 249.922C791.274 250.165 791.731 250.286 792.319 250.286ZM805.196 243.636V250.104C805.196 251.355 804.888 252.279 804.272 252.876C803.666 253.483 802.746 253.786 801.514 253.786C800.833 253.786 800.184 253.683 799.568 253.478C798.962 253.282 798.467 253.007 798.084 252.652L798.588 251.896C798.943 252.213 799.372 252.461 799.876 252.638C800.39 252.815 800.926 252.904 801.486 252.904C802.42 252.904 803.106 252.685 803.544 252.246C803.983 251.817 804.202 251.145 804.202 250.23V249.292C803.894 249.759 803.488 250.113 802.984 250.356C802.49 250.599 801.939 250.72 801.332 250.72C800.642 250.72 800.012 250.571 799.442 250.272C798.882 249.964 798.439 249.539 798.112 248.998C797.795 248.447 797.636 247.827 797.636 247.136C797.636 246.445 797.795 245.829 798.112 245.288C798.439 244.747 798.882 244.327 799.442 244.028C800.002 243.729 800.632 243.58 801.332 243.58C801.958 243.58 802.522 243.706 803.026 243.958C803.53 244.21 803.936 244.574 804.244 245.05V243.636H805.196ZM801.43 249.838C801.962 249.838 802.443 249.726 802.872 249.502C803.302 249.269 803.633 248.947 803.866 248.536C804.109 248.125 804.23 247.659 804.23 247.136C804.23 246.613 804.109 246.151 803.866 245.75C803.633 245.339 803.302 245.022 802.872 244.798C802.452 244.565 801.972 244.448 801.43 244.448C800.898 244.448 800.418 244.56 799.988 244.784C799.568 245.008 799.237 245.325 798.994 245.736C798.761 246.147 798.644 246.613 798.644 247.136C798.644 247.659 798.761 248.125 798.994 248.536C799.237 248.947 799.568 249.269 799.988 249.502C800.418 249.726 800.898 249.838 801.43 249.838ZM810.552 243.58C811.513 243.58 812.251 243.823 812.764 244.308C813.277 244.784 813.534 245.493 813.534 246.436V251H812.582V249.852C812.358 250.235 812.027 250.533 811.588 250.748C811.159 250.963 810.645 251.07 810.048 251.07C809.227 251.07 808.573 250.874 808.088 250.482C807.603 250.09 807.36 249.572 807.36 248.928C807.36 248.303 807.584 247.799 808.032 247.416C808.489 247.033 809.213 246.842 810.202 246.842H812.54V246.394C812.54 245.759 812.363 245.279 812.008 244.952C811.653 244.616 811.135 244.448 810.454 244.448C809.987 244.448 809.539 244.527 809.11 244.686C808.681 244.835 808.312 245.045 808.004 245.316L807.556 244.574C807.929 244.257 808.377 244.014 808.9 243.846C809.423 243.669 809.973 243.58 810.552 243.58ZM810.202 250.286C810.762 250.286 811.243 250.16 811.644 249.908C812.045 249.647 812.344 249.273 812.54 248.788V247.584H810.23C808.97 247.584 808.34 248.023 808.34 248.9C808.34 249.329 808.503 249.67 808.83 249.922C809.157 250.165 809.614 250.286 810.202 250.286ZM816.234 243.636H817.228V251H816.234V243.636ZM816.738 242.026C816.532 242.026 816.36 241.956 816.22 241.816C816.08 241.676 816.01 241.508 816.01 241.312C816.01 241.125 816.08 240.962 816.22 240.822C816.36 240.682 816.532 240.612 816.738 240.612C816.943 240.612 817.116 240.682 817.256 240.822C817.396 240.953 817.466 241.111 817.466 241.298C817.466 241.503 817.396 241.676 817.256 241.816C817.116 241.956 816.943 242.026 816.738 242.026ZM823.745 243.58C824.669 243.58 825.402 243.851 825.943 244.392C826.494 244.924 826.769 245.703 826.769 246.73V251H825.775V246.828C825.775 246.063 825.584 245.479 825.201 245.078C824.819 244.677 824.273 244.476 823.563 244.476C822.77 244.476 822.14 244.714 821.673 245.19C821.216 245.657 820.987 246.305 820.987 247.136V251H819.993V243.636H820.945V244.994C821.216 244.546 821.589 244.201 822.065 243.958C822.551 243.706 823.111 243.58 823.745 243.58ZM829.566 251.07C829.361 251.07 829.183 250.995 829.034 250.846C828.894 250.697 828.824 250.515 828.824 250.3C828.824 250.085 828.894 249.908 829.034 249.768C829.183 249.619 829.361 249.544 829.566 249.544C829.771 249.544 829.949 249.619 830.098 249.768C830.247 249.908 830.322 250.085 830.322 250.3C830.322 250.515 830.247 250.697 830.098 250.846C829.949 250.995 829.771 251.07 829.566 251.07Z" fill="#446193"/>
<path d="M334.12 197.28H325.16V192H349.56V197.28H340.6V220H334.12V197.28ZM365.687 198.16C368.353 198.16 370.5 198.96 372.127 200.56C373.78 202.16 374.607 204.533 374.607 207.68V220H368.367V208.64C368.367 206.933 367.993 205.667 367.247 204.84C366.5 203.987 365.42 203.56 364.007 203.56C362.433 203.56 361.18 204.053 360.247 205.04C359.313 206 358.847 207.44 358.847 209.36V220H352.607V190.32H358.847V200.72C359.673 199.893 360.673 199.267 361.847 198.84C363.02 198.387 364.3 198.16 365.687 198.16ZM401.577 209.32C401.577 209.4 401.537 209.96 401.457 211H385.177C385.471 212.333 386.164 213.387 387.257 214.16C388.351 214.933 389.711 215.32 391.337 215.32C392.457 215.32 393.444 215.16 394.297 214.84C395.177 214.493 395.991 213.96 396.737 213.24L400.057 216.84C398.031 219.16 395.071 220.32 391.177 220.32C388.751 220.32 386.604 219.853 384.737 218.92C382.871 217.96 381.431 216.64 380.417 214.96C379.404 213.28 378.897 211.373 378.897 209.24C378.897 207.133 379.391 205.24 380.377 203.56C381.391 201.853 382.764 200.533 384.497 199.6C386.257 198.64 388.217 198.16 390.377 198.16C392.484 198.16 394.391 198.613 396.097 199.52C397.804 200.427 399.137 201.733 400.097 203.44C401.084 205.12 401.577 207.08 401.577 209.32ZM390.417 202.88C389.004 202.88 387.817 203.28 386.857 204.08C385.897 204.88 385.311 205.973 385.097 207.36H395.697C395.484 206 394.897 204.92 393.937 204.12C392.977 203.293 391.804 202.88 390.417 202.88ZM424.3 220.32C422.513 220.32 420.766 220.107 419.06 219.68C417.353 219.227 415.993 218.667 414.98 218L417.06 213.52C418.02 214.133 419.18 214.64 420.54 215.04C421.9 215.413 423.233 215.6 424.54 215.6C427.18 215.6 428.5 214.947 428.5 213.64C428.5 213.027 428.14 212.587 427.42 212.32C426.7 212.053 425.593 211.827 424.1 211.64C422.34 211.373 420.886 211.067 419.74 210.72C418.593 210.373 417.593 209.76 416.74 208.88C415.913 208 415.5 206.747 415.5 205.12C415.5 203.76 415.886 202.56 416.66 201.52C417.46 200.453 418.606 199.627 420.1 199.04C421.62 198.453 423.406 198.16 425.46 198.16C426.98 198.16 428.486 198.333 429.98 198.68C431.5 199 432.753 199.453 433.74 200.04L431.66 204.48C429.766 203.413 427.7 202.88 425.46 202.88C424.126 202.88 423.126 203.067 422.46 203.44C421.793 203.813 421.46 204.293 421.46 204.88C421.46 205.547 421.82 206.013 422.54 206.28C423.26 206.547 424.406 206.8 425.98 207.04C427.74 207.333 429.18 207.653 430.3 208C431.42 208.32 432.393 208.92 433.22 209.8C434.046 210.68 434.46 211.907 434.46 213.48C434.46 214.813 434.06 216 433.26 217.04C432.46 218.08 431.286 218.893 429.74 219.48C428.22 220.04 426.406 220.32 424.3 220.32ZM459.39 209.32C459.39 209.4 459.35 209.96 459.27 211H442.99C443.283 212.333 443.976 213.387 445.07 214.16C446.163 214.933 447.523 215.32 449.15 215.32C450.27 215.32 451.256 215.16 452.11 214.84C452.99 214.493 453.803 213.96 454.55 213.24L457.87 216.84C455.843 219.16 452.883 220.32 448.99 220.32C446.563 220.32 444.416 219.853 442.55 218.92C440.683 217.96 439.243 216.64 438.23 214.96C437.216 213.28 436.71 211.373 436.71 209.24C436.71 207.133 437.203 205.24 438.19 203.56C439.203 201.853 440.576 200.533 442.31 199.6C444.07 198.64 446.03 198.16 448.19 198.16C450.296 198.16 452.203 198.613 453.91 199.52C455.616 200.427 456.95 201.733 457.91 203.44C458.896 205.12 459.39 207.08 459.39 209.32ZM448.23 202.88C446.816 202.88 445.63 203.28 444.67 204.08C443.71 204.88 443.123 205.973 442.91 207.36H453.51C453.296 206 452.71 204.92 451.75 204.12C450.79 203.293 449.616 202.88 448.23 202.88ZM469.504 201.32C470.251 200.28 471.251 199.493 472.504 198.96C473.784 198.427 475.251 198.16 476.904 198.16V203.92C476.211 203.867 475.744 203.84 475.504 203.84C473.717 203.84 472.317 204.347 471.304 205.36C470.291 206.347 469.784 207.84 469.784 209.84V220H463.544V198.48H469.504V201.32ZM502.717 198.48L493.637 220H487.197L478.157 198.48H484.597L490.557 213.12L496.717 198.48H502.717ZM505.263 198.48H511.503V220H505.263V198.48ZM508.383 195.48C507.236 195.48 506.303 195.147 505.583 194.48C504.863 193.813 504.503 192.987 504.503 192C504.503 191.013 504.863 190.187 505.583 189.52C506.303 188.853 507.236 188.52 508.383 188.52C509.529 188.52 510.463 188.84 511.183 189.48C511.903 190.12 512.263 190.92 512.263 191.88C512.263 192.92 511.903 193.787 511.183 194.48C510.463 195.147 509.529 195.48 508.383 195.48ZM527.694 220.32C525.401 220.32 523.334 219.853 521.494 218.92C519.681 217.96 518.254 216.64 517.214 214.96C516.201 213.28 515.694 211.373 515.694 209.24C515.694 207.107 516.201 205.2 517.214 203.52C518.254 201.84 519.681 200.533 521.494 199.6C523.334 198.64 525.401 198.16 527.694 198.16C529.961 198.16 531.934 198.64 533.614 199.6C535.321 200.533 536.561 201.88 537.334 203.64L532.494 206.24C531.374 204.267 529.761 203.28 527.654 203.28C526.027 203.28 524.681 203.813 523.614 204.88C522.547 205.947 522.014 207.4 522.014 209.24C522.014 211.08 522.547 212.533 523.614 213.6C524.681 214.667 526.027 215.2 527.654 215.2C529.787 215.2 531.401 214.213 532.494 212.24L537.334 214.88C536.561 216.587 535.321 217.92 533.614 218.88C531.934 219.84 529.961 220.32 527.694 220.32ZM561.733 209.32C561.733 209.4 561.693 209.96 561.613 211H545.333C545.627 212.333 546.32 213.387 547.413 214.16C548.507 214.933 549.867 215.32 551.493 215.32C552.613 215.32 553.6 215.16 554.453 214.84C555.333 214.493 556.147 213.96 556.893 213.24L560.213 216.84C558.187 219.16 555.227 220.32 551.333 220.32C548.907 220.32 546.76 219.853 544.893 218.92C543.027 217.96 541.587 216.64 540.573 214.96C539.56 213.28 539.053 211.373 539.053 209.24C539.053 207.133 539.547 205.24 540.533 203.56C541.547 201.853 542.92 200.533 544.653 199.6C546.413 198.64 548.373 198.16 550.533 198.16C552.64 198.16 554.547 198.613 556.253 199.52C557.96 200.427 559.293 201.733 560.253 203.44C561.24 205.12 561.733 207.08 561.733 209.32ZM550.573 202.88C549.16 202.88 547.973 203.28 547.013 204.08C546.053 204.88 545.467 205.973 545.253 207.36H555.853C555.64 206 555.053 204.92 554.093 204.12C553.133 203.293 551.96 202.88 550.573 202.88ZM577.216 198.48H583.456V220H577.216V198.48ZM580.336 195.48C579.189 195.48 578.256 195.147 577.536 194.48C576.816 193.813 576.456 192.987 576.456 192C576.456 191.013 576.816 190.187 577.536 189.52C578.256 188.853 579.189 188.52 580.336 188.52C581.483 188.52 582.416 188.84 583.136 189.48C583.856 190.12 584.216 190.92 584.216 191.88C584.216 192.92 583.856 193.787 583.136 194.48C582.416 195.147 581.483 195.48 580.336 195.48ZM596.487 220.32C594.701 220.32 592.954 220.107 591.247 219.68C589.541 219.227 588.181 218.667 587.167 218L589.247 213.52C590.207 214.133 591.367 214.64 592.727 215.04C594.087 215.413 595.421 215.6 596.727 215.6C599.367 215.6 600.687 214.947 600.687 213.64C600.687 213.027 600.327 212.587 599.607 212.32C598.887 212.053 597.781 211.827 596.287 211.64C594.527 211.373 593.074 211.067 591.927 210.72C590.781 210.373 589.781 209.76 588.927 208.88C588.101 208 587.687 206.747 587.687 205.12C587.687 203.76 588.074 202.56 588.847 201.52C589.647 200.453 590.794 199.627 592.287 199.04C593.807 198.453 595.594 198.16 597.647 198.16C599.167 198.16 600.674 198.333 602.167 198.68C603.687 199 604.941 199.453 605.927 200.04L603.847 204.48C601.954 203.413 599.887 202.88 597.647 202.88C596.314 202.88 595.314 203.067 594.647 203.44C593.981 203.813 593.647 204.293 593.647 204.88C593.647 205.547 594.007 206.013 594.727 206.28C595.447 206.547 596.594 206.8 598.167 207.04C599.927 207.333 601.367 207.653 602.487 208C603.607 208.32 604.581 208.92 605.407 209.8C606.234 210.68 606.647 211.907 606.647 213.48C606.647 214.813 606.247 216 605.447 217.04C604.647 218.08 603.474 218.893 601.927 219.48C600.407 220.04 598.594 220.32 596.487 220.32ZM643.505 198.48V220H637.585V217.44C636.759 218.373 635.772 219.093 634.625 219.6C633.479 220.08 632.239 220.32 630.905 220.32C628.079 220.32 625.839 219.507 624.185 217.88C622.532 216.253 621.705 213.84 621.705 210.64V198.48H627.945V209.72C627.945 213.187 629.399 214.92 632.305 214.92C633.799 214.92 634.999 214.44 635.905 213.48C636.812 212.493 637.265 211.04 637.265 209.12V198.48H643.505ZM662.366 198.16C665.033 198.16 667.18 198.96 668.806 200.56C670.46 202.16 671.286 204.533 671.286 207.68V220H665.046V208.64C665.046 206.933 664.673 205.667 663.926 204.84C663.18 203.987 662.1 203.56 660.686 203.56C659.113 203.56 657.86 204.053 656.926 205.04C655.993 206 655.526 207.44 655.526 209.36V220H649.286V198.48H655.246V201C656.073 200.093 657.1 199.4 658.326 198.92C659.553 198.413 660.9 198.16 662.366 198.16ZM685.623 198.16C688.956 198.16 691.516 198.96 693.303 200.56C695.089 202.133 695.983 204.52 695.983 207.72V220H690.143V217.32C688.969 219.32 686.783 220.32 683.583 220.32C681.929 220.32 680.489 220.04 679.263 219.48C678.063 218.92 677.143 218.147 676.503 217.16C675.863 216.173 675.543 215.053 675.543 213.8C675.543 211.8 676.289 210.227 677.783 209.08C679.303 207.933 681.636 207.36 684.783 207.36H689.743C689.743 206 689.329 204.96 688.503 204.24C687.676 203.493 686.436 203.12 684.783 203.12C683.636 203.12 682.503 203.307 681.383 203.68C680.289 204.027 679.356 204.507 678.583 205.12L676.343 200.76C677.516 199.933 678.916 199.293 680.543 198.84C682.196 198.387 683.889 198.16 685.623 198.16ZM685.143 216.12C686.209 216.12 687.156 215.88 687.983 215.4C688.809 214.893 689.396 214.16 689.743 213.2V211H685.463C682.903 211 681.623 211.84 681.623 213.52C681.623 214.32 681.929 214.96 682.543 215.44C683.183 215.893 684.049 216.12 685.143 216.12ZM722.599 198.48L713.519 220H707.079L698.039 198.48H704.479L710.439 213.12L716.599 198.48H722.599ZM733.123 198.16C736.456 198.16 739.016 198.96 740.803 200.56C742.589 202.133 743.483 204.52 743.483 207.72V220H737.643V217.32C736.469 219.32 734.283 220.32 731.083 220.32C729.429 220.32 727.989 220.04 726.763 219.48C725.563 218.92 724.643 218.147 724.003 217.16C723.363 216.173 723.043 215.053 723.043 213.8C723.043 211.8 723.789 210.227 725.283 209.08C726.803 207.933 729.136 207.36 732.283 207.36H737.243C737.243 206 736.829 204.96 736.003 204.24C735.176 203.493 733.936 203.12 732.283 203.12C731.136 203.12 730.003 203.307 728.883 203.68C727.789 204.027 726.856 204.507 726.083 205.12L723.843 200.76C725.016 199.933 726.416 199.293 728.043 198.84C729.696 198.387 731.389 198.16 733.123 198.16ZM732.643 216.12C733.709 216.12 734.656 215.88 735.483 215.4C736.309 214.893 736.896 214.16 737.243 213.2V211H732.963C730.403 211 729.123 211.84 729.123 213.52C729.123 214.32 729.429 214.96 730.043 215.44C730.683 215.893 731.549 216.12 732.643 216.12ZM749.13 198.48H755.37V220H749.13V198.48ZM752.25 195.48C751.103 195.48 750.17 195.147 749.45 194.48C748.73 193.813 748.37 192.987 748.37 192C748.37 191.013 748.73 190.187 749.45 189.52C750.17 188.853 751.103 188.52 752.25 188.52C753.397 188.52 754.33 188.84 755.05 189.48C755.77 190.12 756.13 190.92 756.13 191.88C756.13 192.92 755.77 193.787 755.05 194.48C754.33 195.147 753.397 195.48 752.25 195.48ZM761.161 190.32H767.401V220H761.161V190.32ZM781.873 198.16C785.206 198.16 787.766 198.96 789.553 200.56C791.339 202.133 792.233 204.52 792.233 207.72V220H786.393V217.32C785.219 219.32 783.033 220.32 779.833 220.32C778.179 220.32 776.739 220.04 775.513 219.48C774.313 218.92 773.393 218.147 772.753 217.16C772.113 216.173 771.793 215.053 771.793 213.8C771.793 211.8 772.539 210.227 774.033 209.08C775.553 207.933 777.886 207.36 781.033 207.36H785.993C785.993 206 785.579 204.96 784.753 204.24C783.926 203.493 782.686 203.12 781.033 203.12C779.886 203.12 778.753 203.307 777.633 203.68C776.539 204.027 775.606 204.507 774.833 205.12L772.593 200.76C773.766 199.933 775.166 199.293 776.793 198.84C778.446 198.387 780.139 198.16 781.873 198.16ZM781.393 216.12C782.459 216.12 783.406 215.88 784.233 215.4C785.059 214.893 785.646 214.16 785.993 213.2V211H781.713C779.153 211 777.873 211.84 777.873 213.52C777.873 214.32 778.179 214.96 778.793 215.44C779.433 215.893 780.299 216.12 781.393 216.12ZM810.6 198.16C812.6 198.16 814.413 198.627 816.04 199.56C817.693 200.467 818.987 201.76 819.92 203.44C820.853 205.093 821.32 207.027 821.32 209.24C821.32 211.453 820.853 213.4 819.92 215.08C818.987 216.733 817.693 218.027 816.04 218.96C814.413 219.867 812.6 220.32 810.6 220.32C807.64 220.32 805.387 219.387 803.84 217.52V220H797.88V190.32H804.12V200.76C805.693 199.027 807.853 198.16 810.6 198.16ZM809.52 215.2C811.12 215.2 812.427 214.667 813.44 213.6C814.48 212.507 815 211.053 815 209.24C815 207.427 814.48 205.987 813.44 204.92C812.427 203.827 811.12 203.28 809.52 203.28C807.92 203.28 806.6 203.827 805.56 204.92C804.547 205.987 804.04 207.427 804.04 209.24C804.04 211.053 804.547 212.507 805.56 213.6C806.6 214.667 807.92 215.2 809.52 215.2ZM825.497 190.32H831.737V220H825.497V190.32ZM858.608 209.32C858.608 209.4 858.568 209.96 858.488 211H842.208C842.502 212.333 843.195 213.387 844.288 214.16C845.382 214.933 846.742 215.32 848.368 215.32C849.488 215.32 850.475 215.16 851.328 214.84C852.208 214.493 853.022 213.96 853.768 213.24L857.088 216.84C855.062 219.16 852.102 220.32 848.208 220.32C845.782 220.32 843.635 219.853 841.768 218.92C839.902 217.96 838.462 216.64 837.448 214.96C836.435 213.28 835.928 211.373 835.928 209.24C835.928 207.133 836.422 205.24 837.408 203.56C838.422 201.853 839.795 200.533 841.528 199.6C843.288 198.64 845.248 198.16 847.408 198.16C849.515 198.16 851.422 198.613 853.128 199.52C854.835 200.427 856.168 201.733 857.128 203.44C858.115 205.12 858.608 207.08 858.608 209.32ZM847.448 202.88C846.035 202.88 844.848 203.28 843.888 204.08C842.928 204.88 842.342 205.973 842.128 207.36H852.728C852.515 206 851.928 204.92 850.968 204.12C850.008 203.293 848.835 202.88 847.448 202.88Z" fill="#446193"/>
<defs>
<clipPath id="clip0">
<rect x="203.314" y="513.231" width="210.449" height="210.449" transform="rotate(-161.117 203.314 513.231)" fill="white"/>
</clipPath>
</defs>
</svg>
